<svg version="1.1" id="Layer_1" xmlns="http://www.w3.org/2000/svg" xmlns:xlink="http://www.w3.org/1999/xlink" x="0px" y="0px"
	 width="100%" viewBox="0 0 1024 1024" enable-background="new 0 0 1024 1024" xml:space="preserve">
<path fill="#666666" opacity="1.000000" stroke="none"
	d="
M741.744446,725.171143 
	C740.863525,723.046814 740.753601,720.883911 738.798584,719.776611 
	C736.584473,720.290100 736.115540,722.248047 735.401917,723.833679 
	C724.674744,747.670288 707.490417,765.797729 685.796021,779.898682 
	C681.478882,782.704651 676.980042,785.313232 671.835754,786.409790 
	C664.582581,787.955872 661.137329,784.156860 663.512207,777.144226 
	C666.028076,769.714905 668.266235,762.233826 668.722229,754.345337 
	C668.785706,753.245850 669.194580,752.001526 667.814880,750.885498 
	C664.894043,751.362732 663.589294,754.142273 661.534241,755.919373 
	C659.393494,757.770508 657.358521,759.826599 654.968628,761.288269 
	C651.002625,763.713806 649.682739,766.991333 650.484863,771.428345 
	C651.029053,774.438660 650.607666,777.158386 647.288696,778.435303 
	C644.142273,779.645691 642.194641,777.745544 640.534241,775.550598 
	C635.609985,769.041016 631.014771,762.308411 626.993530,755.191772 
	C626.125732,753.656006 625.602905,751.414185 623.399109,751.460876 
	C620.987000,751.511963 620.393005,753.843872 619.584045,755.613159 
	C618.185303,758.672058 617.431091,761.936401 617.408203,765.296509 
	C617.386353,768.513306 617.391052,771.493225 614.417175,773.814758 
	C612.012451,775.691956 613.892639,777.765686 615.101624,779.488708 
	C624.194763,792.448547 632.802063,805.713501 640.018005,819.822327 
	C651.116455,841.522400 660.438721,863.917236 665.760437,887.804382 
	C667.542603,895.803772 663.864380,900.262207 655.606018,900.265015 
	C564.116577,900.296265 472.627075,900.304443 381.137604,900.317261 
	C377.138977,900.317810 373.131104,900.472046 369.143799,900.255310 
	C362.214020,899.878662 358.981873,895.746643 360.019379,888.883911 
	C361.370148,879.948975 364.368988,871.447144 367.287933,862.972961 
	C377.825806,832.379883 392.704346,804.026184 411.922089,777.968994 
	C412.503845,777.180176 412.925049,776.273071 413.798340,774.773132 
	C407.944458,772.814392 408.401428,768.166992 408.602997,763.365112 
	C408.744598,759.991760 406.926941,756.967957 405.496307,753.963013 
	C404.874207,752.656250 404.458649,750.868530 402.558289,751.007507 
	C400.883331,751.129944 400.151093,752.649780 399.436249,753.972534 
	C395.630615,761.014587 391.303284,767.723083 386.513062,774.130493 
	C385.524414,775.452881 384.530121,776.906799 383.206116,777.816284 
	C379.861847,780.113525 375.464417,778.506287 375.910583,774.715698 
	C376.911926,766.209351 372.510193,761.590393 366.179810,757.528931 
	C363.472351,755.791748 361.947845,752.425842 358.030487,751.257996 
	C356.312958,756.287720 358.085785,760.932556 358.906250,765.486755 
	C359.609863,769.392456 361.048157,773.180908 362.339142,776.960510 
	C363.245056,779.612915 363.857178,782.023743 361.505066,784.328369 
	C359.220612,786.566772 356.679230,787.006226 353.700500,786.185364 
	C346.159698,784.107483 339.562439,780.095764 333.611694,775.306396 
	C318.748047,763.343933 305.221039,750.083984 295.843689,733.145142 
	C294.988312,731.600098 294.299530,729.784851 292.416138,728.937073 
	C290.151428,729.560242 289.173553,731.700500 287.616455,733.123718 
	C285.466217,735.088989 283.210968,736.301086 280.436829,734.768921 
	C277.850586,733.340515 277.659668,730.910889 278.119385,728.232178 
	C279.081451,722.626404 279.078094,716.952026 278.942230,711.291138 
	C278.896637,709.391663 279.219818,707.215454 276.914917,705.702637 
	C274.356293,707.191040 272.721283,709.746399 270.910889,711.973755 
	C264.762512,719.538147 257.388062,725.719666 249.652756,731.528625 
	C247.908218,732.838806 246.045547,733.945801 243.786972,734.109497 
	C241.778061,734.255188 240.265900,733.391907 239.073990,731.817017 
	C237.766739,730.089600 237.887878,728.055847 239.052155,726.674011 
	C248.657303,715.274109 247.050217,701.869995 246.172165,688.551147 
	C245.105515,672.371704 239.168411,657.513000 234.055237,642.387146 
	C230.971878,633.265991 227.683426,624.171204 225.685989,614.704163 
	C225.249420,612.635010 224.676575,610.594666 224.045135,608.052429 
	C221.891785,609.578552 222.386536,611.323608 222.364883,612.802551 
	C222.260056,619.961914 221.992950,627.131042 223.238983,634.238708 
	C223.825638,637.584961 223.144272,640.525696 219.330658,641.062744 
	C215.414154,641.614380 214.459625,638.688416 213.750290,635.482727 
	C208.714447,612.725403 204.055084,589.889954 201.487885,566.710632 
	C199.693771,550.511536 198.068344,534.299194 199.533554,517.897766 
	C200.761658,504.150452 199.919464,490.264191 201.704651,476.523590 
	C202.282928,472.072479 202.843842,467.618286 203.330856,463.156555 
	C203.537292,461.265167 204.506180,459.321503 202.924759,456.889130 
	C200.914459,458.471619 198.973633,459.943237 197.093597,461.488861 
	C187.508041,469.369385 177.139206,475.915161 165.457214,480.270477 
	C162.041351,481.543976 158.754608,481.856079 156.662659,478.292999 
	C154.680099,474.916229 157.084778,472.525208 159.411453,470.614990 
	C181.679596,452.332550 197.425064,428.950867 211.774689,404.388397 
	C224.364609,382.838013 236.222839,360.867279 250.501266,340.296021 
	C266.857697,316.730957 285.988007,295.912109 308.271057,277.908356 
	C312.156738,274.768921 315.877930,271.432281 320.155884,268.815369 
	C322.958527,267.100952 323.426147,264.144012 323.554840,261.393951 
	C324.479370,241.632278 330.155487,223.119125 338.156281,205.233459 
	C346.884460,185.721603 361.258881,171.291824 379.337921,160.318329 
	C393.298553,151.844559 408.392151,146.428192 424.464783,143.618393 
	C443.627625,140.268356 460.931519,144.082703 475.717987,157.080978 
	C488.936554,168.700958 499.924469,182.261658 509.434082,197.040024 
	C511.443329,200.162445 512.609741,203.627594 513.486877,207.203415 
	C514.264160,210.372116 515.974915,212.029297 519.529785,211.680801 
	C534.371521,210.225830 548.632202,213.596985 562.930298,216.911652 
	C570.182068,218.592819 577.781433,218.637131 584.769287,221.709839 
	C586.185913,222.332733 588.245361,222.429977 589.690735,221.901245 
	C600.078857,218.101074 609.374390,222.952362 618.769836,225.688293 
	C652.225037,235.430389 682.678772,251.207520 710.333862,272.404694 
	C712.166565,273.809387 714.189819,274.965424 716.296814,276.350433 
	C718.421570,274.447235 718.814758,271.955597 719.656006,269.694244 
	C725.071655,255.136139 731.329407,240.990143 740.614807,228.411652 
	C745.319397,222.038605 748.957642,221.234436 756.069519,224.673019 
	C767.486816,230.193237 777.363464,237.664719 784.902649,247.973206 
	C786.330139,249.925003 787.967224,250.851974 790.382751,250.644638 
	C794.734497,250.271088 797.405151,252.800186 798.722656,256.467865 
	C801.534668,264.296051 803.852295,272.315735 809.711914,278.621429 
	C810.149109,279.091858 810.588745,279.771790 810.619995,280.375427 
	C811.029663,288.289398 816.869507,292.520905 821.647522,297.794312 
	C842.503601,320.812683 852.262573,348.490356 854.004517,379.136597 
	C854.978760,396.276459 854.387939,413.459015 853.972717,430.614777 
	C853.843140,435.969482 855.040161,440.669708 857.373413,445.434448 
	C865.791443,462.624847 874.866516,479.501495 881.565674,497.512787 
	C889.040100,517.608459 893.314819,538.445312 896.740051,559.501526 
	C900.835815,584.679260 903.584656,609.966858 902.963440,635.546326 
	C902.622437,649.588684 899.329651,662.895081 893.756470,675.689758 
	C892.471069,678.640686 890.651123,681.974792 886.735535,680.209473 
	C882.654114,678.369263 883.157349,674.601562 884.716431,671.157593 
	C888.875366,661.970215 891.978821,652.355957 892.170288,642.340637 
	C892.341125,633.407532 890.917358,624.429138 889.986206,615.492737 
	C887.812744,594.632874 885.275391,573.821899 880.511780,553.354980 
	C874.974243,529.562927 866.124084,506.984558 855.437317,485.083771 
	C855.004028,484.195984 854.396057,483.385803 853.803040,482.588837 
	C853.649048,482.381866 853.244019,482.361694 852.381042,482.046021 
	C852.381042,486.307129 852.084717,490.394012 852.433716,494.425018 
	C853.745300,509.572937 852.821716,524.695435 852.471313,539.842102 
	C851.924133,563.492065 852.079712,587.139832 853.281677,610.791016 
	C854.683960,638.381653 857.008118,665.971069 855.905212,693.625793 
	C855.048157,715.115234 853.184082,736.521423 845.413696,756.901794 
	C844.940918,758.141785 844.484131,759.419373 843.791077,760.537659 
	C842.114380,763.242981 839.865540,765.190125 836.410217,764.524475 
	C833.007751,763.868958 832.070007,761.122620 831.764160,758.186279 
	C831.105347,751.863708 831.807251,745.540039 832.237976,739.247437 
	C833.189941,725.340942 830.615173,711.728088 829.190247,698.021851 
	C828.886108,695.096558 829.020203,691.989746 827.388123,689.270752 
	C825.666443,689.132874 825.656921,690.616638 825.316284,691.565552 
	C817.172241,714.251404 804.273376,734.071594 789.096924,752.612976 
	C784.426392,758.318970 779.066895,763.279175 774.001282,768.557190 
	C772.000061,770.642273 769.546021,772.313843 766.447937,770.563232 
	C763.436646,768.861694 763.264343,765.904968 763.935852,763.083923 
	C766.517822,752.236572 768.666687,741.315674 770.273376,730.281921 
	C770.742554,727.060303 772.573853,726.726135 775.333618,728.002808 
	C777.965881,729.220764 781.243469,732.075195 783.536255,729.920715 
	C786.310730,727.313599 782.313782,724.651550 781.244202,722.146179 
	C775.078613,707.703613 775.297119,693.026489 778.877808,678.102356 
	C782.797180,661.766541 791.717346,647.491089 797.835327,632.051331 
	C808.879150,604.180359 816.175598,575.468567 819.788818,545.741333 
	C822.209534,525.824646 822.335510,505.820648 821.561523,485.868103 
	C820.698853,463.629639 815.470154,442.119324 808.290466,421.051453 
	C802.818054,404.993347 797.877258,388.758179 790.948669,373.226196 
	C784.068420,357.802307 775.659119,343.276978 765.611450,329.715576 
	C763.315857,326.617065 761.182007,322.664062 756.034363,324.722504 
	C755.191101,326.953827 756.787598,328.254578 757.879883,329.575317 
	C777.624268,353.448639 789.852966,381.184875 799.730713,410.197937 
	C805.213562,426.302307 809.750854,442.649750 813.291748,459.263855 
	C814.570435,465.263702 815.352234,471.442657 815.617798,477.572052 
	C816.555237,499.207428 816.955139,520.830139 814.718323,542.455627 
	C812.672302,562.236694 808.652832,581.589233 803.054504,600.601746 
	C798.920288,614.641968 793.509766,628.252686 787.915527,641.797363 
	C783.225647,653.152405 775.798462,663.173767 772.914551,675.454163 
	C769.468567,690.128357 769.406799,704.409424 774.302612,718.683594 
	C774.495483,719.245911 774.327209,719.932129 774.327209,720.533447 
	C763.476074,722.874451 757.793213,715.239868 751.300720,707.458252 
	C751.300720,714.392395 751.358521,719.743408 751.281311,725.092468 
	C751.225586,728.951782 748.824097,731.212219 745.829163,730.300659 
	C743.520020,729.597778 742.550476,727.638855 741.744446,725.171143 
M577.860657,342.645264 
	C575.758728,338.611176 573.004578,335.078003 569.597839,332.072357 
	C564.229431,327.336060 562.384949,321.644287 565.555298,315.047821 
	C568.722168,308.458557 567.119141,302.399078 564.182007,296.421570 
	C561.676819,291.323090 558.231567,286.924561 554.412354,282.647461 
	C545.933472,273.152130 534.758667,267.860626 523.711365,262.649811 
	C514.345642,258.232117 504.003937,258.106476 496.126953,265.730225 
	C490.443542,271.230927 484.694458,276.289520 477.836578,280.115540 
	C472.011444,283.365387 470.600586,288.458374 470.532043,294.805725 
	C470.368103,309.987976 473.160278,324.961975 473.118408,340.139984 
	C473.082367,353.205719 474.974182,366.150726 480.359894,378.167603 
	C484.687775,387.824280 481.940552,395.603394 475.625793,402.928253 
	C472.691803,406.331451 469.609283,409.606171 466.648102,412.986481 
	C462.538483,417.677704 462.362274,420.573517 465.291901,426.057037 
	C467.878235,430.897858 471.162811,435.631409 472.485901,440.832825 
	C476.934174,458.320221 500.173218,467.791931 517.311829,461.240631 
	C533.470886,455.063782 548.253845,446.349396 561.687622,435.565552 
	C573.327332,426.221832 584.953674,426.526123 597.358337,433.445312 
	C605.963623,438.245239 613.732544,444.320312 622.160950,449.357056 
	C629.797241,453.920410 638.248230,455.011230 645.937134,450.337402 
	C653.608154,445.674408 659.740723,439.226685 659.114014,428.988403 
	C658.608032,420.722107 658.509521,412.296875 657.316956,404.240173 
	C655.991516,395.285400 655.056763,386.106903 652.374939,377.311432 
	C650.970642,372.705872 649.636047,367.947968 649.264282,363.181305 
	C647.631470,342.247101 640.058167,323.429291 629.301208,305.742462 
	C626.309570,300.823578 622.089172,296.873718 615.879578,296.475189 
	C608.253296,295.985779 601.991272,299.643036 596.441345,304.220856 
	C589.565247,309.892609 589.471069,318.984711 595.817566,325.345062 
	C597.925781,327.457886 600.345520,329.257599 602.593079,331.234283 
	C608.947510,336.822906 607.552368,345.114502 603.839478,351.380676 
	C600.543640,356.942780 593.138916,357.470947 586.423157,353.723663 
	C582.117798,351.321289 580.744324,346.915466 577.860657,342.645264 
M608.012085,688.153503 
	C622.433472,690.654907 636.869263,693.077209 651.267700,695.704102 
	C655.813721,696.533569 657.954895,694.588440 658.418030,690.411133 
	C658.930786,685.785950 659.561707,681.121521 659.458435,676.489441 
	C658.997925,655.849609 659.254272,635.186646 657.702332,614.578613 
	C657.463379,611.405518 657.009094,608.451904 654.109619,606.212036 
	C643.433289,597.964478 632.851318,589.583435 623.208618,580.112122 
	C618.328186,575.318420 613.298401,573.241211 605.914490,574.730713 
	C586.813599,578.583801 568.136597,584.146301 549.055481,588.034363 
	C540.507751,589.775940 537.269470,596.945740 540.922302,604.664978 
	C541.634644,606.170288 542.316711,607.689880 543.025513,609.196899 
	C544.304871,611.916931 545.917236,614.537659 543.160522,617.425415 
	C540.408936,620.307678 537.402649,621.634888 533.330383,620.668884 
	C526.143127,618.963867 519.180481,616.654846 513.012451,612.588257 
	C510.031586,610.622986 507.732849,610.766479 504.850739,612.525635 
	C501.032013,614.856323 497.138947,617.325806 492.411865,617.260559 
	C487.976379,617.199402 486.148102,613.866272 488.511719,610.166260 
	C489.497894,608.622498 490.688324,607.231873 491.123077,605.391113 
	C491.459778,603.965515 492.344208,602.341309 490.385651,601.511292 
	C488.897247,600.880493 487.889740,601.898254 487.167999,603.147339 
	C486.318878,604.616943 485.397461,606.236694 483.478851,606.107178 
	C478.677521,605.783020 478.737396,608.503235 478.918671,612.166565 
	C479.888702,631.767273 480.590149,651.377686 477.890472,670.922302 
	C477.135834,676.385254 478.365295,677.485474 483.961182,678.024353 
	C496.586182,679.240112 509.225342,677.967712 521.866394,678.595032 
	C536.674683,679.329834 551.407410,680.724304 566.086853,682.577332 
	C579.776245,684.305298 593.349609,686.941101 608.012085,688.153503 
M546.910400,742.449280 
	C569.962341,738.951599 592.874329,734.786682 614.869995,726.777344 
	C627.058533,722.339172 639.324280,717.946655 649.435974,709.332703 
	C650.682556,708.270813 652.327881,707.516235 651.705017,705.294861 
	C649.818420,703.821777 647.443481,703.536499 645.189514,703.290771 
	C631.301514,701.776001 617.554382,699.260315 603.701355,697.464905 
	C584.598022,694.989014 565.598816,691.711121 546.362305,690.257141 
	C536.924377,689.543823 527.520203,687.635193 518.040222,688.424744 
	C506.876648,689.354553 495.774231,689.419128 484.639252,688.263428 
	C480.848907,687.870117 476.920715,687.160645 473.233887,687.736877 
	C463.881439,689.198669 454.645172,691.347778 445.135345,691.806335 
	C424.037872,692.823608 402.954620,694.611267 382.149384,688.633484 
	C377.910614,687.415527 372.729340,686.664490 368.764374,689.772461 
	C366.392975,691.631409 368.605347,701.390137 371.724762,705.216675 
	C372.247528,705.857971 372.896973,706.395386 373.481415,706.987122 
	C377.143066,710.694397 381.357941,713.672424 385.982605,716.006775 
	C414.262451,730.281616 444.607483,737.396118 475.741364,741.719727 
	C499.125671,744.967102 522.564636,744.363464 546.910400,742.449280 
M376.282501,236.688370 
	C414.710510,220.585678 454.873779,212.162827 496.447754,210.494858 
	C496.277649,207.709579 494.844086,206.675339 493.824463,205.410858 
	C486.273621,196.046555 477.175781,188.268524 468.454987,180.050934 
	C454.214203,166.631882 437.448669,164.214584 419.765167,168.630035 
	C401.716583,173.136627 385.224823,181.899506 370.714691,193.610306 
	C356.592957,205.007675 346.322968,219.500702 340.509949,236.841370 
	C338.648315,242.394821 338.609772,248.158112 340.359772,254.477081 
	C352.723236,249.021561 363.445068,241.537384 376.282501,236.688370 
M479.973389,770.553833 
	C479.607910,773.414368 477.044495,774.022827 475.085022,775.059692 
	C468.281586,778.659668 462.021851,783.064941 455.986938,787.783447 
	C451.426147,791.349365 448.786316,791.537170 443.982880,788.465881 
	C439.438721,785.560364 438.098297,781.562012 439.159882,776.460083 
	C440.365204,770.667297 441.484741,764.856750 442.750885,758.505432 
	C439.089600,759.418396 437.854767,761.636841 437.144287,764.259583 
	C436.448914,766.826538 435.856232,769.423218 435.283264,772.021118 
	C431.766327,787.966431 431.897705,787.606323 443.569794,793.641785 
	C446.415405,795.113281 447.128326,797.006226 445.118561,799.621338 
	C442.604492,802.892639 443.644409,805.637878 445.921204,808.606567 
	C449.606445,813.411682 453.982391,817.470215 458.598267,821.304626 
	C466.532501,827.895691 466.552185,827.872070 462.837555,837.717346 
	C460.950836,842.718018 461.976044,845.072510 466.870575,847.059448 
	C475.881439,850.717712 485.084717,852.932373 494.963348,853.092285 
	C505.445679,853.262024 506.289886,853.206116 508.940033,843.445801 
	C509.070953,842.963623 509.226685,842.488098 509.353455,842.004883 
	C509.801819,840.295715 510.462616,838.783813 512.615662,838.911072 
	C514.615295,839.029175 516.180603,839.877747 516.721985,841.930969 
	C517.059326,843.210388 517.123352,844.559143 517.393066,845.859558 
	C518.573730,851.552246 520.911438,853.822021 526.631592,853.555969 
	C538.282715,853.013977 549.796936,851.492737 560.640503,846.764221 
	C564.274414,845.179626 565.900085,842.772888 563.956665,838.854736 
	C562.922180,836.768982 562.009521,834.614075 560.849792,832.601074 
	C558.844849,829.120789 559.183655,826.542603 562.900085,824.334778 
	C569.260010,820.556580 574.313232,815.214111 579.253845,809.786743 
	C581.719604,807.078186 582.473206,804.142517 581.018677,800.604858 
	C578.511902,794.508057 578.613953,794.529785 584.681152,791.541748 
	C587.453369,790.176453 590.787292,789.224976 590.982727,785.241638 
	C591.379150,777.160706 590.143555,769.298889 587.591553,761.651978 
	C586.911316,759.613525 585.736633,757.822815 583.235535,758.080566 
	C582.243652,759.560608 582.911011,760.674988 583.279785,761.716980 
	C585.352539,767.572449 585.856384,773.744568 586.956726,779.791138 
	C587.303528,781.697205 587.669067,783.764587 586.316040,785.575928 
	C582.764404,790.330627 574.189575,791.455139 569.470459,787.620361 
	C563.384399,782.674805 557.216675,777.801270 549.990417,774.677063 
	C545.491638,772.732117 545.260925,770.506592 547.750793,766.688049 
	C550.699463,762.165955 553.860779,757.656006 555.077698,751.776794 
	C548.701050,750.443848 542.919495,751.953125 537.159790,753.334595 
	C536.315735,753.536987 535.621765,754.532837 534.947571,755.246033 
	C532.436707,757.902344 530.256348,760.971375 527.407593,763.184814 
	C523.011169,766.600647 520.180420,770.165771 520.252380,776.274597 
	C520.335327,783.314209 514.274109,780.805298 510.437378,781.112488 
	C506.239227,781.448730 505.386200,778.264832 505.773102,775.070984 
	C506.373169,770.117859 504.360291,766.849976 500.392914,764.233337 
	C498.468018,762.963745 496.361572,761.498962 495.220612,759.593628 
	C490.634491,751.934937 483.009674,751.873718 475.590637,751.294189 
	C471.352875,750.963196 470.337524,752.378723 472.266754,756.344299 
	C474.517487,760.970642 477.270203,765.352844 479.973389,770.553833 
M714.846313,450.574402 
	C718.030212,455.048615 721.312744,459.456604 724.371521,464.014740 
	C727.774658,469.085968 732.433350,472.431335 738.164246,474.157471 
	C742.013977,475.316956 745.659363,476.824677 749.260010,478.579681 
	C757.248413,482.473297 767.006775,477.567505 767.541016,468.692688 
	C768.482910,453.046692 768.531555,437.448944 760.007385,423.168396 
	C753.749512,412.684570 747.671448,402.364014 734.035583,400.534119 
	C730.081055,400.003418 726.121460,399.383148 722.144714,399.173309 
	C714.103394,398.749084 708.547485,403.252045 706.878723,411.176056 
	C703.930115,425.176819 707.643860,437.861786 714.846313,450.574402 
M429.376801,600.308838 
	C416.318878,599.996582 403.452148,601.456421 390.799835,604.661316 
	C387.535980,605.488037 384.431274,606.594604 384.166046,610.948792 
	C382.858643,632.412781 381.580566,653.824219 388.380005,674.797485 
	C389.859375,679.360596 392.047607,681.898438 396.859406,682.464539 
	C418.680664,685.031921 440.383209,684.059509 462.009155,680.517029 
	C464.561829,680.098816 466.833282,679.059021 467.359680,676.052185 
	C468.104950,671.795044 469.305389,667.567139 469.555969,663.282654 
	C470.587250,645.651062 469.753998,628.000854 469.654358,610.358215 
	C469.630768,606.185974 467.694855,603.662292 463.165161,602.999268 
	C452.269012,601.404419 441.287201,601.098389 429.376801,600.308838 
M448.786896,560.591003 
	C445.954590,554.583130 442.806427,548.714722 441.324554,542.142700 
	C440.982941,540.627563 440.608978,538.577148 438.534637,538.432617 
	C436.667999,538.302368 435.650665,539.929871 434.716492,541.285889 
	C433.020691,543.747498 431.521210,546.345337 429.805695,548.792236 
	C419.436188,563.582703 406.859283,576.346497 393.432892,588.331421 
	C391.007935,590.496033 388.710907,592.803894 385.263977,596.083557 
	C388.296509,595.800720 389.734985,595.814758 391.105011,595.515564 
	C403.338226,592.843628 415.698151,591.788147 428.225067,591.807617 
	C439.389557,591.825012 450.442383,593.190735 461.556915,593.727112 
	C463.435547,593.817810 465.580597,594.557251 467.639740,591.992493 
	C461.053741,582.177124 454.636261,571.974304 448.786896,560.591003 
M734.433350,291.706757 
	C736.958374,293.275757 737.707703,290.889740 738.625122,289.594513 
	C748.047791,276.291473 757.662292,263.152039 769.609741,251.934891 
	C772.369812,249.343475 771.899719,247.332657 769.149597,245.007233 
	C764.556396,241.123337 759.510559,237.944168 754.517944,234.639587 
	C750.675842,232.096603 748.456177,232.894653 746.198364,236.748642 
	C739.543640,248.108353 733.933899,259.931519 729.179504,272.201813 
	C724.730469,283.684021 724.608337,283.636688 734.433350,291.706757 
M261.755768,641.752686 
	C264.466797,650.179077 267.585693,658.359436 274.885223,664.685669 
	C275.376678,663.477905 275.698822,663.040588 275.712524,662.593750 
	C275.789062,660.101624 275.862549,657.605530 275.807190,655.113708 
	C275.286804,631.687256 274.484802,608.260193 276.584534,584.859558 
	C276.749847,583.017395 277.278381,580.764526 274.808563,579.732178 
	C271.297089,581.940918 271.264954,581.919128 269.357544,584.735596 
	C257.531586,602.197937 255.770233,621.064697 261.755768,641.752686 
M749.845154,592.398071 
	C750.808411,616.228760 750.152283,640.086853 750.215332,663.988464 
	C751.376099,663.907776 751.792847,664.006165 751.991577,663.841431 
	C752.618896,663.321472 753.214355,662.744202 753.734131,662.116272 
	C760.051514,654.485107 763.547974,645.537842 765.382202,635.960632 
	C768.820129,618.010681 766.873596,600.850586 756.847656,585.151306 
	C755.154541,582.500122 753.307190,579.677124 749.169250,578.729309 
	C749.377930,583.326050 749.565002,587.446899 749.845154,592.398071 
M757.478577,303.949036 
	C770.329224,294.632660 782.569519,284.174011 799.973022,282.230621 
	C796.564148,275.400635 793.537659,269.324280 790.498230,263.254395 
	C789.551575,261.363861 788.118591,261.279907 786.304565,262.008270 
	C781.979553,263.744812 777.617432,265.302124 773.951233,268.396027 
	C765.037354,275.918488 757.172424,284.506378 749.197388,292.947571 
	C742.595581,299.935303 743.148926,302.430176 750.849731,308.380463 
	C750.964294,308.468964 751.173462,308.435120 751.702271,308.509644 
	C753.309937,307.249512 755.121094,305.829834 757.478577,303.949036 
M580.737671,570.984863 
	C587.592041,569.671814 594.447815,568.365906 601.299744,567.040466 
	C602.867798,566.737122 604.894775,567.081238 605.431458,564.981567 
	C605.862061,563.296875 604.429138,562.224792 603.460205,561.158264 
	C595.621094,552.529236 588.282776,543.492004 581.241821,534.206360 
	C580.458740,533.173584 579.746399,531.933350 577.112671,532.113159 
	C571.666260,547.393005 564.665344,562.461060 555.054138,576.228027 
	C555.384705,576.584229 555.715271,576.940491 556.045837,577.296692 
	C564.001831,575.259521 571.957764,573.222351 580.737671,570.984863 
M357.914032,302.555450 
	C350.537689,293.815247 344.890259,284.118286 341.386627,273.182190 
	C340.851013,271.510284 340.554382,268.740387 337.517883,269.981598 
	C335.109894,270.965881 335.361969,272.785919 336.059479,274.971375 
	C338.147339,281.512848 341.126587,287.598938 344.766815,293.391876 
	C345.590973,294.703400 347.134155,295.930878 345.162903,298.157379 
	C336.384888,292.885986 333.878082,283.721039 331.032745,274.618073 
	C326.450989,276.739716 326.644104,279.935638 327.832428,283.247009 
	C331.204651,292.643890 337.637238,299.647705 345.364502,305.726562 
	C355.484009,313.687317 366.810059,319.687958 377.874359,326.101105 
	C388.441681,332.226166 399.541077,337.049530 411.938416,338.121338 
	C413.727142,338.275970 415.828308,339.276367 416.523132,336.741333 
	C417.248444,334.095093 414.995667,333.418640 413.136444,332.663605 
	C412.679504,332.478058 412.175995,332.399048 411.688232,332.298584 
	C390.926880,328.022888 372.860504,318.835724 357.914032,302.555450 
M367.069824,646.401917 
	C367.045135,655.868958 367.069000,665.336548 366.971069,674.802856 
	C366.933716,678.410889 368.510254,679.919678 372.109650,679.775085 
	C376.908844,679.582153 378.285767,678.258789 377.750610,673.281677 
	C376.846954,664.877197 375.033325,656.622864 374.653015,648.100220 
	C374.103790,635.793152 375.185089,623.530701 374.809723,611.249146 
	C374.754852,609.453125 375.115784,607.183411 372.670563,606.823914 
	C370.102112,606.446350 369.369873,608.541382 368.955536,610.600708 
	C368.693787,611.901550 368.416473,613.216858 368.347321,614.536194 
	C367.807892,624.828552 366.824829,635.103394 367.069824,646.401917 
M511.082855,867.346436 
	C507.475769,868.632507 505.169098,871.001709 505.103027,874.989258 
	C505.056091,877.822998 506.224976,880.190796 508.743896,881.616394 
	C511.739655,883.311951 514.815369,883.391113 517.548279,881.093262 
	C520.163208,878.894714 521.254761,876.012512 520.204712,872.646118 
	C518.939148,868.588623 516.023132,866.885132 511.082855,867.346436 
M517.426819,757.981445 
	C518.357727,756.960449 520.199097,756.631775 519.944275,754.454651 
	C515.303345,752.836792 510.769623,753.831360 505.984192,754.679504 
	C509.398956,760.446350 511.658966,761.139893 517.426819,757.981445 
M778.616272,303.100800 
	C782.357300,300.495911 786.098389,297.891052 789.839417,295.286163 
	C782.257263,298.409576 775.083008,302.015930 768.259460,308.286194 
	C772.567505,307.119324 775.209961,305.137238 778.616272,303.100800 
z"/>
<path fill="#666666" opacity="1.000000" stroke="none" 
	d="
M621.945251,634.372681 
	C622.349243,647.151794 618.554199,657.368164 607.295654,663.827759 
	C596.877991,669.804993 586.296082,664.599243 580.647949,658.484924 
	C568.903564,645.771362 572.277466,620.402588 586.813354,612.415955 
	C597.428406,606.583618 611.281067,609.819214 617.268982,620.358093 
	C619.674072,624.591187 621.608826,628.978760 621.945251,634.372681 
z"/>
<path fill="#666666" opacity="1.000000" stroke="none" 
	d="
M483.091064,825.271851 
	C480.334137,827.247253 477.922028,827.059692 475.315613,825.639587 
	C467.370300,821.310547 460.145630,816.000305 453.647186,809.740112 
	C448.481140,804.763428 448.487671,802.365051 453.267761,797.118835 
	C458.264282,791.635071 464.457794,787.578491 470.696625,783.826538 
	C479.618103,778.461304 488.949036,773.744751 498.920166,770.071167 
	C501.010468,773.258240 500.096710,776.599548 500.872864,779.590088 
	C501.740479,782.932983 503.022308,785.526001 506.476410,786.539917 
	C508.999725,787.280640 509.746155,788.631714 508.284790,790.960571 
	C501.914886,801.111633 495.770294,811.419495 488.235077,820.777710 
	C486.902679,822.432495 485.019501,823.643799 483.091064,825.271851 
z"/>
<path fill="#666666" opacity="1.000000" stroke="none" 
	d="
M538.140747,820.888672 
	C529.765076,811.678040 524.544861,800.768982 517.864014,790.842957 
	C516.798828,789.260315 516.478271,787.566406 518.790222,786.877808 
	C524.569519,785.156494 525.514404,780.606323 525.792114,775.528198 
	C526.091492,770.054565 526.814270,769.508301 531.742249,771.731079 
	C543.429504,777.002502 555.028931,782.485901 565.191406,790.464172 
	C568.057678,792.714294 570.817505,795.190796 573.220581,797.920532 
	C577.654236,802.956604 577.363464,804.326721 572.862610,809.060181 
	C567.777527,814.407776 561.985168,818.864563 555.820923,822.797058 
	C547.549316,828.073914 545.629944,827.750549 538.140747,820.888672 
z"/>
<path fill="#666666" opacity="1.000000" stroke="none" 
	d="
M481.248230,846.138306 
	C477.683350,844.993225 474.527222,843.928101 471.363007,842.887634 
	C465.496857,840.958557 469.400757,837.253479 469.944000,834.333557 
	C470.508545,831.299500 472.403320,830.136475 475.452057,831.725769 
	C479.254974,833.708069 482.602844,832.292908 485.682892,830.033020 
	C492.516907,825.018799 497.410461,818.310608 501.849213,811.217896 
	C503.751740,808.177917 505.730072,805.185364 507.659698,802.193420 
	C510.155518,803.400146 510.086548,805.086182 509.684875,806.713440 
	C506.727417,818.694763 505.365784,830.952332 503.395630,843.101746 
	C502.809540,846.716064 501.427429,848.225952 497.523834,848.024841 
	C492.178558,847.749390 486.921112,847.020264 481.248230,846.138306 
z"/>
<path fill="#666666" opacity="1.000000" stroke="none" 
	d="
M522.880676,843.772949 
	C520.553894,829.864441 518.335388,816.354431 516.116943,802.844482 
	C516.755981,802.608459 517.395020,802.372498 518.034058,802.136536 
	C520.813293,806.302795 523.666748,810.421814 526.353394,814.646973 
	C529.868286,820.174622 534.156799,824.988464 539.174683,829.174805 
	C542.579346,832.015320 546.257874,833.244812 550.729492,831.810730 
	C557.151855,829.751099 555.658447,836.111694 557.444763,838.701782 
	C559.464722,841.630676 556.197266,842.034668 554.384766,842.910889 
	C545.911987,847.006897 536.730591,847.301453 527.606750,847.885742 
	C524.973999,848.054443 523.713989,846.422668 522.880676,843.772949 
z"/>
<path fill="#666666" opacity="1.000000" stroke="none" 
	d="
M511.417725,825.318176 
	C512.418274,823.627686 513.574768,823.534241 514.179993,824.949280 
	C515.459595,827.941040 515.769775,830.932983 512.768250,833.599792 
	C509.758667,831.106140 511.080017,828.277710 511.417725,825.318176 
z"/>
<path fill="#666666" opacity="1.000000" stroke="none" 
	d="
M415.687347,673.527954 
	C410.541931,673.382996 406.122803,671.031555 401.054016,672.784668 
	C398.524200,673.659607 396.373718,670.495850 395.942169,667.706482 
	C394.338715,657.342529 394.044830,646.881653 394.190643,636.414246 
	C394.257751,631.595764 394.562408,626.778503 394.842224,621.965515 
	C395.117157,617.237000 397.500732,615.350159 402.280212,613.691711 
	C413.595703,609.765442 425.053833,609.930298 436.653687,609.770874 
	C446.331085,609.637939 452.489380,613.749634 455.723511,623.149231 
	C457.940948,629.594055 457.636261,636.372437 457.635315,642.934692 
	C457.634094,651.322693 457.512390,659.844727 453.563232,667.830811 
	C451.990692,671.010864 450.127289,672.378784 446.971222,672.909790 
	C436.718781,674.634827 426.425873,674.145142 415.687347,673.527954 
M413.987946,662.670227 
	C422.401367,663.824829 430.836792,663.181641 439.269684,663.027344 
	C442.292725,662.972046 444.752289,661.872986 445.281097,658.877441 
	C447.335266,647.241699 448.353668,635.518066 446.708832,623.729675 
	C446.307953,620.856628 444.181000,619.396545 441.370483,619.577820 
	C439.517059,619.697327 437.746704,619.379395 435.945953,619.337769 
	C426.489777,619.119019 417.070679,618.972717 407.930908,622.373596 
	C404.747375,623.558289 403.262634,625.144958 403.276581,628.403137 
	C403.309204,636.047058 403.050598,643.701843 403.374817,651.332458 
	C403.767365,660.571899 403.974731,660.563110 413.987946,662.670227 
z"/>
</svg>